<svg width="85" height="23" viewBox="0 0 85 23" fill="none" xmlns="http://www.w3.org/2000/svg">
<path d="M9.49525 22.32C7.55392 22.32 5.87925 21.9467 4.47125 21.2C3.06325 20.432 1.97525 19.3867 1.20725 18.064C0.43925 16.72 0.05525 15.1947 0.05525 13.488C0.05525 12.208 0.268583 11.024 0.69525 9.936C1.12192 8.848 1.71925 7.90933 2.48725 7.12C3.25525 6.30933 4.16192 5.69067 5.20725 5.264C6.27392 4.816 7.43658 4.592 8.69525 4.592C9.93258 4.592 11.0526 4.80533 12.0553 5.232C13.0793 5.65867 13.9539 6.26667 14.6793 7.056C15.4259 7.84533 15.9913 8.77333 16.3753 9.84C16.7806 10.9067 16.9619 12.08 16.9193 13.36L16.8873 14.704H3.44725L2.71125 11.728H12.1193L11.5433 12.368V11.76C11.5433 11.2907 11.4153 10.8853 11.1593 10.544C10.9246 10.1813 10.6046 9.904 10.1993 9.712C9.79392 9.52 9.33525 9.424 8.82325 9.424C8.09792 9.424 7.48992 9.57333 6.99925 9.872C6.52992 10.1493 6.16725 10.5547 5.91125 11.088C5.65525 11.6213 5.52725 12.2613 5.52725 13.008C5.52725 13.8613 5.69792 14.5973 6.03925 15.216C6.40192 15.8347 6.92458 16.3147 7.60725 16.656C8.31125 16.9973 9.16458 17.168 10.1673 17.168C10.8286 17.168 11.4046 17.0827 11.8953 16.912C12.4073 16.7413 12.9513 16.4427 13.5273 16.016L16.2793 19.888C15.5326 20.4853 14.7753 20.9653 14.0073 21.328C13.2606 21.6693 12.5139 21.9147 11.7673 22.064C11.0206 22.2347 10.2633 22.32 9.49525 22.32ZM20.0213 22V4.944H25.5893L25.9093 10.544L24.6613 9.584C24.9386 8.64533 25.3653 7.80267 25.9413 7.056C26.5386 6.288 27.2533 5.69067 28.0853 5.264C28.9173 4.816 29.7919 4.592 30.7093 4.592C31.0933 4.592 31.4559 4.624 31.7973 4.688C32.1386 4.73067 32.4586 4.79467 32.7573 4.88L31.1253 11.472C30.8906 11.3227 30.5599 11.1947 30.1333 11.088C29.7066 10.96 29.2479 10.896 28.7573 10.896C28.3306 10.896 27.9466 10.9707 27.6053 11.12C27.2639 11.248 26.9759 11.44 26.7413 11.696C26.5066 11.952 26.3253 12.2613 26.1973 12.624C26.0693 12.9653 26.0052 13.3707 26.0052 13.84V22H20.0213ZM42.8078 22.32C40.8664 22.32 39.1918 21.9467 37.7838 21.2C36.3758 20.432 35.2878 19.3867 34.5198 18.064C33.7518 16.72 33.3678 15.1947 33.3678 13.488C33.3678 12.208 33.5811 11.024 34.0078 9.936C34.4344 8.848 35.0318 7.90933 35.7998 7.12C36.5678 6.30933 37.4744 5.69067 38.5198 5.264C39.5864 4.816 40.7491 4.592 42.0078 4.592C43.2451 4.592 44.3651 4.80533 45.3678 5.232C46.3918 5.65867 47.2664 6.26667 47.9918 7.056C48.7384 7.84533 49.3038 8.77333 49.6878 9.84C50.0931 10.9067 50.2744 12.08 50.2318 13.36L50.1998 14.704H36.7598L36.0238 11.728H45.4318L44.8558 12.368V11.76C44.8558 11.2907 44.7278 10.8853 44.4718 10.544C44.2371 10.1813 43.9171 9.904 43.5118 9.712C43.1064 9.52 42.6478 9.424 42.1358 9.424C41.4104 9.424 40.8024 9.57333 40.3118 9.872C39.8424 10.1493 39.4798 10.5547 39.2238 11.088C38.9678 11.6213 38.8398 12.2613 38.8398 13.008C38.8398 13.8613 39.0104 14.5973 39.3518 15.216C39.7144 15.8347 40.2371 16.3147 40.9198 16.656C41.6238 16.9973 42.4771 17.168 43.4798 17.168C44.1411 17.168 44.7171 17.0827 45.2078 16.912C45.7198 16.7413 46.2638 16.4427 46.8398 16.016L49.5918 19.888C48.8451 20.4853 48.0878 20.9653 47.3198 21.328C46.5731 21.6693 45.8264 21.9147 45.0798 22.064C44.3331 22.2347 43.5758 22.32 42.8078 22.32ZM53.3338 22V4.944H58.9018L59.1578 8.4L57.9418 8.784C58.1551 7.97333 58.5711 7.25867 59.1898 6.64C59.8084 6 60.5444 5.49867 61.3978 5.136C62.2511 4.77333 63.1471 4.592 64.0858 4.592C65.3658 4.592 66.4431 4.85867 67.3178 5.392C68.2138 5.904 68.8858 6.68267 69.3338 7.728C69.8031 8.752 70.0378 10.0107 70.0378 11.504V22H64.0858V11.984C64.0858 11.4293 64.0004 10.9707 63.8298 10.608C63.6591 10.224 63.4031 9.936 63.0618 9.744C62.7204 9.552 62.3151 9.46667 61.8458 9.488C61.4831 9.488 61.1418 9.54133 60.8218 9.648C60.5231 9.75467 60.2564 9.92533 60.0218 10.16C59.7871 10.3733 59.6058 10.6187 59.4778 10.896C59.3711 11.1733 59.3177 11.4827 59.3177 11.824V22H56.3418C55.6164 22 54.9978 22 54.4858 22C53.9951 22 53.6111 22 53.3338 22ZM75.36 22V0.623999H81.312V22H75.36ZM72.544 10V4.944H84.288V10H72.544Z" fill="#052B63"/>
</svg>
